<svg width="798" height="540" viewBox="0 0 798 540" fill="none" xmlns="http://www.w3.org/2000/svg">
<g clip-path="url(#clip0_283_29)">
<rect width="798" height="540" fill="#243973"/>
<path d="M331.859 305.99L344.824 269.545H354.881L337.428 314.269H326.125L308.755 269.545H318.894L331.859 305.99Z" fill="#F7F9FF"/>
<path d="M404.012 290.812C404.012 292.489 403.902 294.004 403.68 295.357H368.691C368.968 298.929 370.325 301.797 372.763 303.961C375.201 306.126 378.193 307.208 381.739 307.208C386.836 307.208 390.438 305.124 392.543 300.958H402.766C401.381 305.07 398.86 308.452 395.203 311.104C391.601 313.701 387.113 315 381.739 315C377.362 315 373.428 314.053 369.938 312.159C366.502 310.211 363.788 307.505 361.793 304.042C359.854 300.525 358.884 296.466 358.884 291.867C358.884 287.267 359.826 283.236 361.71 279.773C363.649 276.255 366.336 273.55 369.771 271.656C373.262 269.762 377.251 268.815 381.739 268.815C386.061 268.815 389.911 269.735 393.291 271.575C396.671 273.415 399.303 276.012 401.187 279.367C403.07 282.668 404.012 286.483 404.012 290.812ZM394.122 287.89C394.067 284.481 392.82 281.748 390.382 279.692C387.945 277.635 384.925 276.607 381.324 276.607C378.055 276.607 375.257 277.635 372.93 279.692C370.602 281.694 369.217 284.426 368.774 287.89H394.122Z" fill="#F7F9FF"/>
<path d="M422.811 276.039C424.196 273.766 426.024 272.008 428.296 270.763C430.623 269.464 433.365 268.815 436.524 268.815V278.393H434.113C430.401 278.393 427.576 279.313 425.636 281.153C423.753 282.992 422.811 286.185 422.811 290.731V314.269H413.336V269.545H422.811V276.039Z" fill="#F7F9FF"/>
<path d="M450.488 263.252C448.77 263.252 446.895 263.052 445.731 261.916C444.568 260.779 443.154 259.756 443.154 258.079C443.154 256.401 441.99 244.556 443.154 243.42C444.317 242.283 452.989 242.473 454.707 242.473C456.369 242.473 458.811 250.915 458.811 250.915C459.974 252.051 456.037 256.017 456.037 257.695C456.037 259.372 455.455 260.779 454.291 261.916C453.128 263.052 452.15 263.252 450.488 263.252ZM454.707 269.545V314.269H445.233V269.545H454.707Z" fill="#F7F9FF"/>
<path d="M490.25 268.815C493.852 268.815 497.065 269.545 499.891 271.006C502.772 272.468 505.016 274.632 506.623 277.5C508.23 280.368 509.033 283.831 509.033 287.89V314.269H499.642V289.269C499.642 285.265 498.617 282.208 496.567 280.097C494.517 277.933 491.719 276.851 488.173 276.851C484.627 276.851 481.801 277.933 479.696 280.097C477.646 282.208 476.621 285.265 476.621 289.269V314.269H467.146V269.545H476.621V274.659C478.172 272.819 480.139 271.385 482.521 270.357C484.959 269.329 487.536 268.815 490.25 268.815Z" fill="#F7F9FF"/>
<path d="M517.96 291.705C517.96 287.213 518.902 283.236 520.786 279.773C522.725 276.31 525.329 273.631 528.598 271.737C531.923 269.789 535.579 268.815 539.569 268.815C543.17 268.815 546.3 269.518 548.96 270.925C551.675 272.278 553.836 273.983 555.442 276.039V269.545H565V314.269H555.442V307.614C553.836 309.724 551.647 311.483 548.877 312.89C546.106 314.297 542.948 315 539.402 315C535.469 315 531.867 314.026 528.598 312.078C525.329 310.076 522.725 307.316 520.786 303.799C518.902 300.227 517.96 296.196 517.96 291.705ZM555.442 291.867C555.442 288.782 554.778 286.104 553.448 283.831C552.173 281.558 550.484 279.827 548.378 278.636C546.273 277.446 544.001 276.851 541.563 276.851C539.125 276.851 536.854 277.446 534.748 278.636C532.643 279.773 530.925 281.477 529.595 283.75C528.321 285.969 527.684 288.62 527.684 291.705C527.684 294.789 528.321 297.495 529.595 299.821C530.925 302.148 532.643 303.934 534.748 305.179C536.909 306.369 539.181 306.964 541.563 306.964C544.001 306.964 546.273 306.369 548.378 305.179C550.484 303.988 552.173 302.256 553.448 299.984C554.778 297.657 555.442 294.951 555.442 291.867Z" fill="#F7F9FF"/>
<path d="M332.591 256.715H319.692L317.476 262.863H312.201L323.238 232.733H329.089L340.126 262.863H334.807L332.591 256.715ZM331.172 252.689L326.164 238.707L321.111 252.689H331.172Z" fill="#F7F9FF"/>
<path d="M349.978 230.828V262.863H344.925V230.828H349.978Z" fill="#F7F9FF"/>
<path d="M361.665 230.828V262.863H356.612V230.828H361.665Z" fill="#F7F9FF"/>
<path d="M378.129 250.828C378.129 248.433 378.631 246.311 379.636 244.464C380.67 242.617 382.059 241.189 383.803 240.179C385.576 239.14 387.526 238.62 389.653 238.62C391.574 238.62 393.244 238.995 394.662 239.746C396.11 240.467 397.263 241.376 398.119 242.473V239.01H403.217V262.863H398.119V259.313C397.263 260.438 396.095 261.376 394.618 262.127C393.14 262.877 391.456 263.252 389.565 263.252C387.467 263.252 385.546 262.733 383.803 261.694C382.059 260.626 380.67 259.154 379.636 257.278C378.631 255.373 378.129 253.223 378.129 250.828ZM398.119 250.915C398.119 249.269 397.765 247.841 397.056 246.629C396.376 245.417 395.475 244.493 394.352 243.858C393.229 243.223 392.017 242.906 390.717 242.906C389.417 242.906 388.205 243.223 387.083 243.858C385.96 244.464 385.044 245.373 384.334 246.585C383.655 247.769 383.315 249.183 383.315 250.828C383.315 252.473 383.655 253.916 384.334 255.157C385.044 256.398 385.96 257.35 387.083 258.014C388.235 258.649 389.447 258.966 390.717 258.966C392.017 258.966 393.229 258.649 394.352 258.014C395.475 257.379 396.376 256.456 397.056 255.244C397.765 254.003 398.119 252.56 398.119 250.915Z" fill="#F7F9FF"/>
<path d="M414.907 242.56C415.764 241.405 416.931 240.467 418.408 239.746C419.916 238.995 421.585 238.62 423.417 238.62C425.574 238.62 427.525 239.125 429.268 240.135C431.012 241.145 432.386 242.588 433.39 244.464C434.395 246.311 434.897 248.433 434.897 250.828C434.897 253.223 434.395 255.373 433.39 257.278C432.386 259.154 430.997 260.626 429.224 261.694C427.48 262.733 425.545 263.252 423.417 263.252C421.526 263.252 419.842 262.891 418.364 262.17C416.916 261.448 415.764 260.525 414.907 259.399V262.863H409.854V230.828H414.907V242.56ZM429.756 250.828C429.756 249.183 429.401 247.769 428.692 246.585C428.012 245.373 427.096 244.464 425.944 243.858C424.821 243.223 423.609 242.906 422.309 242.906C421.038 242.906 419.827 243.223 418.674 243.858C417.552 244.493 416.635 245.417 415.926 246.629C415.247 247.841 414.907 249.269 414.907 250.915C414.907 252.56 415.247 254.003 415.926 255.244C416.635 256.456 417.552 257.379 418.674 258.014C419.827 258.649 421.038 258.966 422.309 258.966C423.609 258.966 424.821 258.649 425.944 258.014C427.096 257.35 428.012 256.398 428.692 255.157C429.401 253.916 429.756 252.473 429.756 250.828Z" fill="#F7F9FF"/>
<path d="M450.488 263.252C448.183 263.252 446.1 262.747 444.238 261.737C442.376 260.698 440.914 259.255 439.85 257.408C438.786 255.532 438.254 253.368 438.254 250.915C438.254 248.49 438.801 246.34 439.894 244.464C440.988 242.588 442.48 241.145 444.371 240.135C446.262 239.125 448.375 238.62 450.71 238.62C453.044 238.62 455.157 239.125 457.048 240.135C458.939 241.145 460.431 242.588 461.525 244.464C462.618 246.34 463.165 248.49 463.165 250.915C463.165 253.339 462.603 255.489 461.48 257.365C460.358 259.241 458.821 260.698 456.871 261.737C454.95 262.747 452.822 263.252 450.488 263.252ZM450.488 258.966C451.788 258.966 453 258.663 454.123 258.057C455.275 257.451 456.206 256.542 456.915 255.33C457.624 254.118 457.979 252.646 457.979 250.915C457.979 249.183 457.639 247.725 456.959 246.542C456.28 245.33 455.378 244.421 454.256 243.815C453.133 243.209 451.921 242.906 450.621 242.906C449.321 242.906 448.109 243.209 446.986 243.815C445.893 244.421 445.021 245.33 444.371 246.542C443.721 247.725 443.396 249.183 443.396 250.915C443.396 253.483 444.061 255.474 445.391 256.889C446.75 258.274 448.449 258.966 450.488 258.966Z" fill="#F7F9FF"/>
<path d="M490.278 239.01V262.863H485.225V260.049C484.427 261.03 483.378 261.809 482.078 262.386C480.807 262.935 479.448 263.209 478 263.209C476.079 263.209 474.351 262.819 472.814 262.04C471.307 261.261 470.11 260.106 469.224 258.577C468.367 257.047 467.938 255.2 467.938 253.036V239.01H472.947V252.3C472.947 254.435 473.494 256.08 474.587 257.235C475.681 258.36 477.173 258.923 479.064 258.923C480.955 258.923 482.447 258.36 483.541 257.235C484.664 256.08 485.225 254.435 485.225 252.3V239.01H490.278Z" fill="#F7F9FF"/>
<path d="M502.84 243.036V256.239C502.84 257.134 503.047 257.783 503.461 258.187C503.904 258.562 504.643 258.75 505.677 258.75H508.78V262.863H504.791C502.515 262.863 500.772 262.343 499.56 261.304C498.349 260.265 497.743 258.577 497.743 256.239V243.036H494.862V239.01H497.743V233.079H502.84V239.01H508.78V243.036H502.84Z" fill="#F7F9FF"/>
<path d="M294.636 294.87H254.212L246.766 315H234L267.51 225H281.472L314.849 315H302.083L294.636 294.87ZM291.179 285.26L274.424 239.545L257.669 285.26H291.179Z" fill="#F7F9FF"/>
</g>
<defs>
<clipPath id="clip0_283_29">
<rect width="798" height="540" fill="white"/>
</clipPath>
</defs>
</svg>
