<svg width="600" height="618" viewBox="0 0 600 618" fill="none" xmlns="http://www.w3.org/2000/svg">
<rect width="600" height="618" fill="#4E6DA9"/>
<path d="M215.12 364.32C213.563 364.32 212.155 363.968 210.896 363.264C209.659 362.539 208.667 361.568 207.92 360.352C207.195 359.115 206.832 357.739 206.832 356.224C206.832 354.709 207.195 353.355 207.92 352.16C208.645 350.944 209.637 349.984 210.896 349.28C212.155 348.555 213.552 348.192 215.088 348.192C216.667 348.192 218.075 348.555 219.312 349.28C220.571 349.984 221.563 350.944 222.288 352.16C223.013 353.355 223.376 354.709 223.376 356.224C223.376 357.739 223.013 359.115 222.288 360.352C221.563 361.568 220.571 362.539 219.312 363.264C218.075 363.968 216.677 364.32 215.12 364.32ZM215.088 360.416C215.877 360.416 216.571 360.245 217.168 359.904C217.787 359.541 218.256 359.051 218.576 358.432C218.917 357.792 219.088 357.067 219.088 356.256C219.088 355.445 218.917 354.731 218.576 354.112C218.235 353.493 217.765 353.013 217.168 352.672C216.571 352.309 215.877 352.128 215.088 352.128C214.32 352.128 213.637 352.309 213.04 352.672C212.443 353.013 211.973 353.493 211.632 354.112C211.291 354.731 211.12 355.445 211.12 356.256C211.12 357.067 211.291 357.792 211.632 358.432C211.973 359.051 212.443 359.541 213.04 359.904C213.637 360.245 214.32 360.416 215.088 360.416ZM236.475 364V355.136C236.475 354.219 236.187 353.472 235.611 352.896C235.035 352.32 234.288 352.032 233.371 352.032C232.773 352.032 232.24 352.16 231.771 352.416C231.301 352.672 230.928 353.035 230.651 353.504C230.395 353.973 230.267 354.517 230.267 355.136L228.635 354.304C228.635 353.088 228.891 352.032 229.403 351.136C229.936 350.219 230.661 349.504 231.579 348.992C232.517 348.48 233.573 348.224 234.747 348.224C235.877 348.224 236.891 348.512 237.787 349.088C238.683 349.643 239.387 350.379 239.899 351.296C240.411 352.192 240.667 353.163 240.667 354.208V364H236.475ZM226.075 364V348.544H230.267V364H226.075ZM258.87 364.32C257.76 364.32 256.758 364.096 255.862 363.648C254.966 363.179 254.251 362.549 253.718 361.76C253.184 360.971 252.896 360.064 252.854 359.04V353.568C252.896 352.544 253.184 351.637 253.718 350.848C254.272 350.037 254.987 349.397 255.862 348.928C256.758 348.459 257.76 348.224 258.87 348.224C260.299 348.224 261.579 348.576 262.71 349.28C263.84 349.984 264.726 350.944 265.366 352.16C266.027 353.376 266.358 354.752 266.358 356.288C266.358 357.803 266.027 359.168 265.366 360.384C264.726 361.6 263.84 362.56 262.71 363.264C261.579 363.968 260.299 364.32 258.87 364.32ZM258.134 360.448C258.902 360.448 259.584 360.277 260.182 359.936C260.779 359.573 261.238 359.083 261.558 358.464C261.899 357.824 262.07 357.088 262.07 356.256C262.07 355.445 261.899 354.731 261.558 354.112C261.238 353.472 260.779 352.981 260.182 352.64C259.584 352.277 258.902 352.096 258.134 352.096C257.387 352.096 256.715 352.277 256.118 352.64C255.52 352.981 255.051 353.472 254.71 354.112C254.39 354.731 254.23 355.445 254.23 356.256C254.23 357.088 254.39 357.824 254.71 358.464C255.051 359.083 255.51 359.573 256.086 359.936C256.683 360.277 257.366 360.448 258.134 360.448ZM250.294 370.464V348.544H254.486V352.608L253.782 356.352L254.454 360.096V370.464H250.294ZM269.106 364V348.544H273.298V364H269.106ZM273.298 355.456L271.666 354.368C271.858 352.469 272.413 350.976 273.33 349.888C274.247 348.779 275.57 348.224 277.298 348.224C278.045 348.224 278.717 348.352 279.314 348.608C279.911 348.843 280.455 349.237 280.946 349.792L278.322 352.8C278.087 352.544 277.799 352.352 277.458 352.224C277.138 352.096 276.765 352.032 276.338 352.032C275.442 352.032 274.706 352.32 274.13 352.896C273.575 353.451 273.298 354.304 273.298 355.456ZM289.245 364.32C287.688 364.32 286.28 363.968 285.021 363.264C283.784 362.539 282.792 361.568 282.045 360.352C281.32 359.115 280.957 357.739 280.957 356.224C280.957 354.709 281.32 353.355 282.045 352.16C282.77 350.944 283.762 349.984 285.021 349.28C286.28 348.555 287.677 348.192 289.213 348.192C290.792 348.192 292.2 348.555 293.437 349.28C294.696 349.984 295.688 350.944 296.413 352.16C297.138 353.355 297.501 354.709 297.501 356.224C297.501 357.739 297.138 359.115 296.413 360.352C295.688 361.568 294.696 362.539 293.437 363.264C292.2 363.968 290.802 364.32 289.245 364.32ZM289.213 360.416C290.002 360.416 290.696 360.245 291.293 359.904C291.912 359.541 292.381 359.051 292.701 358.432C293.042 357.792 293.213 357.067 293.213 356.256C293.213 355.445 293.042 354.731 292.701 354.112C292.36 353.493 291.89 353.013 291.293 352.672C290.696 352.309 290.002 352.128 289.213 352.128C288.445 352.128 287.762 352.309 287.165 352.672C286.568 353.013 286.098 353.493 285.757 354.112C285.416 354.731 285.245 355.445 285.245 356.256C285.245 357.067 285.416 357.792 285.757 358.432C286.098 359.051 286.568 359.541 287.165 359.904C287.762 360.245 288.445 360.416 289.213 360.416ZM306.664 370.848C305.021 370.848 303.57 370.549 302.312 369.952C301.053 369.376 300.05 368.555 299.304 367.488L301.96 364.832C302.557 365.536 303.218 366.069 303.944 366.432C304.69 366.816 305.586 367.008 306.632 367.008C307.933 367.008 308.957 366.677 309.704 366.016C310.472 365.355 310.856 364.437 310.856 363.264V359.392L311.56 356L310.888 352.608V348.544H315.048V363.2C315.048 364.736 314.685 366.069 313.96 367.2C313.256 368.352 312.274 369.248 311.016 369.888C309.757 370.528 308.306 370.848 306.664 370.848ZM306.472 363.584C305.085 363.584 303.837 363.253 302.728 362.592C301.618 361.909 300.744 360.981 300.104 359.808C299.485 358.635 299.176 357.323 299.176 355.872C299.176 354.421 299.485 353.12 300.104 351.968C300.744 350.816 301.618 349.909 302.728 349.248C303.837 348.565 305.085 348.224 306.472 348.224C307.624 348.224 308.637 348.448 309.512 348.896C310.408 349.344 311.112 349.963 311.624 350.752C312.136 351.52 312.413 352.427 312.456 353.472V358.336C312.413 359.36 312.125 360.277 311.592 361.088C311.08 361.877 310.376 362.496 309.48 362.944C308.605 363.371 307.602 363.584 306.472 363.584ZM307.304 359.776C308.072 359.776 308.733 359.616 309.288 359.296C309.864 358.955 310.312 358.496 310.632 357.92C310.952 357.323 311.112 356.651 311.112 355.904C311.112 355.136 310.952 354.464 310.632 353.888C310.312 353.312 309.864 352.864 309.288 352.544C308.733 352.203 308.072 352.032 307.304 352.032C306.536 352.032 305.864 352.203 305.288 352.544C304.712 352.864 304.264 353.323 303.944 353.92C303.624 354.496 303.464 355.157 303.464 355.904C303.464 356.629 303.624 357.291 303.944 357.888C304.264 358.464 304.712 358.923 305.288 359.264C305.864 359.605 306.536 359.776 307.304 359.776ZM318.731 364V348.544H322.923V364H318.731ZM322.923 355.456L321.291 354.368C321.483 352.469 322.038 350.976 322.955 349.888C323.872 348.779 325.195 348.224 326.923 348.224C327.67 348.224 328.342 348.352 328.939 348.608C329.536 348.843 330.08 349.237 330.571 349.792L327.947 352.8C327.712 352.544 327.424 352.352 327.083 352.224C326.763 352.096 326.39 352.032 325.963 352.032C325.067 352.032 324.331 352.32 323.755 352.896C323.2 353.451 322.923 354.304 322.923 355.456ZM338.998 364.32C337.377 364.32 335.937 363.979 334.678 363.296C333.419 362.592 332.417 361.632 331.67 360.416C330.945 359.2 330.582 357.813 330.582 356.256C330.582 354.72 330.934 353.355 331.638 352.16C332.363 350.944 333.345 349.984 334.582 349.28C335.819 348.555 337.195 348.192 338.71 348.192C340.203 348.192 341.515 348.533 342.646 349.216C343.798 349.877 344.694 350.795 345.334 351.968C345.995 353.12 346.326 354.432 346.326 355.904C346.326 356.181 346.305 356.469 346.262 356.768C346.241 357.045 346.187 357.365 346.102 357.728L333.11 357.76V354.624L344.15 354.592L342.454 355.904C342.411 354.987 342.241 354.219 341.942 353.6C341.665 352.981 341.249 352.512 340.694 352.192C340.161 351.851 339.499 351.68 338.71 351.68C337.878 351.68 337.153 351.872 336.534 352.256C335.915 352.619 335.435 353.141 335.094 353.824C334.774 354.485 334.614 355.275 334.614 356.192C334.614 357.131 334.785 357.952 335.126 358.656C335.489 359.339 336.001 359.872 336.662 360.256C337.323 360.619 338.091 360.8 338.966 360.8C339.755 360.8 340.47 360.672 341.11 360.416C341.75 360.139 342.305 359.733 342.774 359.2L345.238 361.664C344.491 362.539 343.574 363.2 342.486 363.648C341.419 364.096 340.257 364.32 338.998 364.32ZM354.231 364.352C353.356 364.352 352.492 364.235 351.639 364C350.807 363.765 350.039 363.445 349.335 363.04C348.631 362.613 348.023 362.101 347.511 361.504L350.007 358.976C350.54 359.573 351.159 360.021 351.863 360.32C352.567 360.619 353.345 360.768 354.199 360.768C354.881 360.768 355.393 360.672 355.735 360.48C356.097 360.288 356.279 360 356.279 359.616C356.279 359.189 356.087 358.859 355.703 358.624C355.34 358.389 354.86 358.197 354.263 358.048C353.665 357.877 353.036 357.696 352.375 357.504C351.735 357.291 351.116 357.024 350.519 356.704C349.921 356.363 349.431 355.904 349.047 355.328C348.684 354.731 348.503 353.963 348.503 353.024C348.503 352.043 348.737 351.189 349.207 350.464C349.697 349.739 350.391 349.173 351.286 348.768C352.183 348.363 353.239 348.16 354.455 348.16C355.735 348.16 356.887 348.384 357.911 348.832C358.956 349.28 359.82 349.952 360.503 350.848L357.975 353.376C357.505 352.8 356.972 352.384 356.375 352.128C355.799 351.872 355.169 351.744 354.487 351.744C353.868 351.744 353.388 351.84 353.047 352.032C352.727 352.224 352.567 352.491 352.567 352.832C352.567 353.216 352.748 353.515 353.111 353.728C353.495 353.941 353.985 354.133 354.583 354.304C355.18 354.453 355.799 354.635 356.439 354.848C357.1 355.04 357.719 355.317 358.295 355.68C358.892 356.043 359.372 356.523 359.735 357.12C360.119 357.717 360.311 358.485 360.311 359.424C360.311 360.939 359.767 362.144 358.679 363.04C357.591 363.915 356.108 364.352 354.231 364.352ZM368.449 364.352C367.575 364.352 366.711 364.235 365.857 364C365.025 363.765 364.257 363.445 363.553 363.04C362.849 362.613 362.241 362.101 361.729 361.504L364.225 358.976C364.759 359.573 365.377 360.021 366.081 360.32C366.785 360.619 367.564 360.768 368.417 360.768C369.1 360.768 369.612 360.672 369.953 360.48C370.316 360.288 370.497 360 370.497 359.616C370.497 359.189 370.305 358.859 369.921 358.624C369.559 358.389 369.079 358.197 368.481 358.048C367.884 357.877 367.255 357.696 366.593 357.504C365.953 357.291 365.335 357.024 364.737 356.704C364.14 356.363 363.649 355.904 363.265 355.328C362.903 354.731 362.721 353.963 362.721 353.024C362.721 352.043 362.956 351.189 363.425 350.464C363.916 349.739 364.609 349.173 365.505 348.768C366.401 348.363 367.457 348.16 368.673 348.16C369.953 348.16 371.105 348.384 372.129 348.832C373.175 349.28 374.039 349.952 374.721 350.848L372.193 353.376C371.724 352.8 371.191 352.384 370.593 352.128C370.017 351.872 369.388 351.744 368.705 351.744C368.087 351.744 367.607 351.84 367.265 352.032C366.945 352.224 366.785 352.491 366.785 352.832C366.785 353.216 366.967 353.515 367.329 353.728C367.713 353.941 368.204 354.133 368.801 354.304C369.399 354.453 370.017 354.635 370.657 354.848C371.319 355.04 371.937 355.317 372.513 355.68C373.111 356.043 373.591 356.523 373.953 357.12C374.337 357.717 374.529 358.485 374.529 359.424C374.529 360.939 373.985 362.144 372.897 363.04C371.809 363.915 370.327 364.352 368.449 364.352ZM380.236 364.32C379.468 364.32 378.839 364.064 378.348 363.552C377.857 363.04 377.612 362.411 377.612 361.664C377.612 360.917 377.857 360.288 378.348 359.776C378.839 359.264 379.468 359.008 380.236 359.008C380.983 359.008 381.601 359.264 382.092 359.776C382.583 360.288 382.828 360.917 382.828 361.664C382.828 362.411 382.583 363.04 382.092 363.552C381.601 364.064 380.983 364.32 380.236 364.32ZM389.674 364.32C388.906 364.32 388.276 364.064 387.786 363.552C387.295 363.04 387.049 362.411 387.049 361.664C387.049 360.917 387.295 360.288 387.786 359.776C388.276 359.264 388.906 359.008 389.674 359.008C390.42 359.008 391.039 359.264 391.53 359.776C392.02 360.288 392.266 360.917 392.266 361.664C392.266 362.411 392.02 363.04 391.53 363.552C391.039 364.064 390.42 364.32 389.674 364.32Z" fill="white"/>
<path d="M164 234.322L182.35 231.812L182.866 279.58L186.329 280.171L214.038 231L230.103 240.524C227.303 246.578 223.79 252.632 219.565 258.686L210.279 271.681L204.679 278.842C202.91 281.057 201.264 282.952 199.741 284.527C203.622 288.514 206.521 291.59 208.437 293.756C218.115 305.077 225.018 314.158 229.145 320.999L214.038 332L188.54 292.722L182.276 295.602L181.023 327.792L164.59 329.268L164 234.322ZM174.538 299.072C174.538 299.121 174.538 299.145 174.538 299.145C174.587 299.145 174.612 299.121 174.612 299.072H174.538Z" fill="white"/>
<path d="M226.743 302.372L247.708 275.239L246.824 273.504H245.829C239.909 273.504 233.768 272.95 227.406 271.843L228.843 263.685L234.591 264.312C242.697 265.174 249.182 265.666 254.046 265.789L257.399 276.014L252.941 282.253L247.635 289.341L241.997 296.539L236.617 303.221L237.096 304.661H238.239C244.134 304.661 250.337 305.239 256.846 306.396L255.483 314.775C253.346 314.603 251.147 314.394 248.887 314.148L235.402 312.819C233.191 312.622 231.09 312.45 229.101 312.302L226.743 302.372Z" fill="white"/>
<path d="M263.884 267.598L272.875 265.863V277.454L282.123 275.719L282.823 284.099L273.022 284.837L272.322 304.808C274.14 305.374 275.712 305.817 277.038 306.137C280.354 306.925 282.381 307.417 283.118 307.614L281.165 315.329C275.712 314.123 270.934 312.733 266.832 311.158C265.161 310.542 264.326 309.435 264.326 307.835L263.884 267.598Z" fill="white"/>
<path d="M314.954 315.329C304.833 314.295 296.899 312.757 291.151 310.715C290.094 310.321 289.394 308.057 289.05 303.922C288.756 300.132 289.075 296.847 290.008 294.066C290.401 292.909 290.868 292.269 291.408 292.146C293.718 291.531 296.149 291.088 298.704 290.817L306.368 289.968L306.221 284.763C303.543 284.246 300.878 283.84 298.225 283.545C295.597 283.225 292.981 282.856 290.377 282.438L292.33 274.353L298.557 275.276C304.256 276.113 308.788 277.134 312.153 278.34C313.774 278.931 314.585 280.124 314.585 281.921L314.732 302.15L306.884 302.926L306.663 296.613L304.563 297.019C302.205 297.413 299.957 297.905 297.82 298.496C297.55 299.8 297.414 300.883 297.414 301.744C297.414 302.999 297.464 303.972 297.562 304.661C301.025 305.448 306.368 306.248 313.59 307.06L316.612 307.392L314.954 315.329Z" fill="white"/>
<path d="M323.87 267.598L332.861 265.863V277.454L342.11 275.719L342.81 284.099L333.008 284.837L332.308 304.808C334.126 305.374 335.698 305.817 337.025 306.137C340.341 306.925 342.367 307.417 343.104 307.614L341.151 315.329C335.698 314.123 330.92 312.733 326.818 311.158C325.148 310.542 324.313 309.435 324.313 307.835L323.87 267.598Z" fill="white"/>
<path d="M359.906 257.114C360.177 258.074 360.312 259.156 360.312 260.362C360.312 261.544 360.275 262.553 360.201 263.389C360.128 264.202 360.042 264.964 359.943 265.678C359.698 267.229 359.415 268.287 359.096 268.853L350.621 268.484C351.039 266.318 351.247 262.86 351.247 258.111L359.906 257.114ZM359.612 275.719C359.735 278.254 359.796 280.383 359.796 282.105C359.796 283.828 359.759 285.846 359.685 288.16L358.838 312.671L350.99 313.336L350.253 276.9L359.612 275.719Z" fill="white"/>
<path d="M378.367 290.817C378.367 296.748 378.674 301.892 379.288 306.248L386.547 305.879C387.873 300.612 388.536 295.469 388.536 290.448C388.536 288.43 388.401 286.634 388.131 285.059C386.657 284.32 381.449 283.951 372.508 283.951H370.629C370.113 283.951 369.548 283.976 368.934 284.025L370.518 275.461C370.936 275.436 371.317 275.411 371.661 275.387C372.029 275.338 372.397 275.313 372.766 275.313L373.871 275.239C374.24 275.239 375.272 275.239 376.966 275.239C381.83 275.239 387.161 275.891 392.958 277.196C394.8 277.663 395.93 278.488 396.348 279.669C396.987 281.49 397.306 284.456 397.306 288.566C397.306 296.072 396.164 303.332 393.879 310.346C393.683 310.985 393.449 311.527 393.179 311.97C392.933 312.413 392.491 312.696 391.853 312.819C391.214 312.967 390.465 313.102 389.605 313.225C388.745 313.348 387.898 313.459 387.062 313.557C385.245 313.729 383.992 313.816 383.304 313.816C382.616 313.816 381.879 313.803 381.093 313.779C380.307 313.779 379.447 313.754 378.514 313.705C376.058 313.582 374.399 313.36 373.54 313.04C372.68 312.745 372.09 312.228 371.771 311.49C371.476 310.752 371.182 309.57 370.887 307.946C370.199 304.156 369.855 299.837 369.855 294.989C369.855 293.143 369.904 291.31 370.002 289.488L378.367 287.827V290.817Z" fill="white"/>
<path d="M406.26 277.38L414.108 276.384L415.398 281.995L421.883 276.384H430.947C431.414 276.384 432.065 276.74 432.9 277.454C434.3 278.611 435 279.644 435 280.555L433.71 312.745L425.494 313.41L425.346 284.911C425.051 284.813 424.646 284.763 424.13 284.763C423.614 284.763 423.135 284.788 422.693 284.837C422.276 284.886 421.821 284.96 421.33 285.059C420.175 285.256 419.23 285.489 418.493 285.76L415.766 286.757L414.771 312.376L406.923 312.967L406.26 277.38Z" fill="white"/>
</svg>
