<svg width="128" height="35" viewBox="0 0 128 35" fill="none" xmlns="http://www.w3.org/2000/svg">
<path d="M37.8429 31.4962L42.8565 17.3232H46.7453L39.9962 34.7159H35.6253L28.9083 17.3232H32.8292L37.8429 31.4962Z" fill="#F7F9FF"/>
<path d="M65.745 25.5934C65.745 26.2458 65.7021 26.835 65.6164 27.3611H52.0859C52.193 28.75 52.718 29.8653 53.6607 30.7071C54.6035 31.5488 55.7605 31.9697 57.1317 31.9697C59.1029 31.9697 60.4956 31.1595 61.3098 29.5391H65.2629C64.7272 31.1385 63.7523 32.4537 62.3382 33.4848C60.9455 34.4949 59.21 35 57.1317 35C55.4391 35 53.9178 34.6317 52.568 33.8952C51.2396 33.1376 50.1897 32.0854 49.4184 30.7386C48.6685 29.3708 48.2935 27.7925 48.2935 26.0038C48.2935 24.2151 48.6578 22.6473 49.3863 21.3005C50.1362 19.9327 51.1753 18.8805 52.5037 18.1439C53.8536 17.4074 55.3962 17.0391 57.1317 17.0391C58.803 17.0391 60.292 17.3969 61.599 18.1124C62.906 18.8279 63.9237 19.838 64.6522 21.1427C65.3807 22.4263 65.745 23.9099 65.745 25.5934ZM61.9204 24.4571C61.899 23.1313 61.4169 22.0686 60.4742 21.2689C59.5314 20.4693 58.3637 20.0694 56.971 20.0694C55.7069 20.0694 54.6249 20.4693 53.725 21.2689C52.8251 22.0476 52.2895 23.1103 52.1181 24.4571H61.9204Z" fill="#F7F9FF"/>
<path d="M73.0144 19.8485C73.55 18.9646 74.2571 18.2807 75.1355 17.7967C76.0354 17.2917 77.096 17.0391 78.3173 17.0391V20.7639H77.3852C75.9497 20.7639 74.857 21.1216 74.1071 21.8371C73.3786 22.5526 73.0144 23.7942 73.0144 25.5619V34.7159H69.3505V17.3232H73.0144V19.8485Z" fill="#F7F9FF"/>
<path d="M83.7174 14.8758C83.0532 14.8758 82.3279 14.798 81.8779 14.3561C81.428 13.9141 80.8811 13.5163 80.8811 12.864C80.8811 12.2116 80.4312 7.60515 80.8811 7.16323C81.3311 6.72131 84.6847 6.79503 85.3489 6.79503C85.9917 6.79503 86.9358 10.0779 86.9358 10.0779C87.3858 10.5198 85.8631 12.0623 85.8631 12.7146C85.8631 13.367 85.6382 13.9141 85.1882 14.3561C84.7383 14.798 84.3602 14.8758 83.7174 14.8758ZM85.3489 17.3232V34.7159H81.6851V17.3232H85.3489Z" fill="#F7F9FF"/>
<path d="M99.0938 17.0391C100.487 17.0391 101.729 17.3232 102.822 17.8914C103.936 18.4596 104.804 19.3013 105.425 20.4167C106.047 21.532 106.357 22.8788 106.357 24.4571V34.7159H102.726V24.9937C102.726 23.4364 102.329 22.2475 101.536 21.4268C100.744 20.585 99.6616 20.1641 98.2904 20.1641C96.9191 20.1641 95.8263 20.585 95.0122 21.4268C94.2194 22.2475 93.823 23.4364 93.823 24.9937V34.7159H90.1592V17.3232H93.823V19.3119C94.423 18.5964 95.1836 18.0387 96.1049 17.6389C97.0477 17.2391 98.0439 17.0391 99.0938 17.0391Z" fill="#F7F9FF"/>
<path d="M109.809 25.9407C109.809 24.194 110.174 22.6473 110.902 21.3005C111.652 19.9537 112.659 18.912 113.923 18.1755C115.209 17.4179 116.623 17.0391 118.165 17.0391C119.558 17.0391 120.769 17.3127 121.797 17.8598C122.847 18.3859 123.683 19.0488 124.304 19.8485V17.3232H128V34.7159H124.304V32.1275C123.683 32.9482 122.836 33.6322 121.765 34.1793C120.694 34.7264 119.472 35 118.101 35C116.58 35 115.187 34.6212 113.923 33.8636C112.659 33.085 111.652 32.0118 110.902 30.6439C110.174 29.2551 109.809 27.6873 109.809 25.9407ZM124.304 26.0038C124.304 24.8043 124.047 23.7626 123.533 22.8788C123.04 21.9949 122.386 21.3215 121.572 20.8586C120.758 20.3956 119.88 20.1641 118.937 20.1641C117.994 20.1641 117.116 20.3956 116.301 20.8586C115.487 21.3005 114.823 21.9634 114.309 22.8472C113.816 23.71 113.57 24.7412 113.57 25.9407C113.57 27.1401 113.816 28.1923 114.309 29.0972C114.823 30.0021 115.487 30.6966 116.301 31.1806C117.137 31.6435 118.015 31.875 118.937 31.875C119.88 31.875 120.758 31.6435 121.572 31.1806C122.386 30.7176 123.04 30.0442 123.533 29.1604C124.047 28.2555 124.304 27.2033 124.304 26.0038Z" fill="#F7F9FF"/>
<path d="M38.1257 12.3338H33.1377L32.2807 14.7243H30.241L34.509 3.00715H36.7716L41.0396 14.7243H38.9827L38.1257 12.3338ZM37.5772 10.7681L35.6403 5.33039L33.6862 10.7681H37.5772Z" fill="#F7F9FF"/>
<path d="M44.8494 2.26641V14.7243H42.8954V2.26641H44.8494Z" fill="#F7F9FF"/>
<path d="M49.3689 2.26641V14.7243H47.4149V2.26641H49.3689Z" fill="#F7F9FF"/>
<path d="M55.7357 10.0442C55.7357 9.11265 55.9299 8.28774 56.3184 7.56944C56.7184 6.85115 57.2555 6.29559 57.9297 5.90278C58.6153 5.49874 59.3695 5.29672 60.1922 5.29672C60.935 5.29672 61.5807 5.44262 62.1292 5.73443C62.6891 6.01501 63.1347 6.36855 63.4661 6.79503V5.44823H65.4373V14.7243H63.4661V13.3439C63.1347 13.7816 62.6834 14.1463 62.112 14.4381C61.5407 14.7299 60.8893 14.8758 60.158 14.8758C59.3466 14.8758 58.6039 14.6738 57.9297 14.2698C57.2555 13.8545 56.7184 13.2821 56.3184 12.5526C55.9299 11.8119 55.7357 10.9757 55.7357 10.0442ZM63.4661 10.0779C63.4661 9.43813 63.329 8.88257 63.0548 8.41119C62.7919 7.93981 62.4434 7.58067 62.0092 7.33375C61.5749 7.08684 61.1064 6.96338 60.6036 6.96338C60.1008 6.96338 59.6323 7.08684 59.1981 7.33375C58.7639 7.56944 58.4096 7.92298 58.1354 8.39436C57.8725 8.85452 57.7411 9.40446 57.7411 10.0442C57.7411 10.6839 57.8725 11.2451 58.1354 11.7277C58.4096 12.2103 58.7639 12.5807 59.1981 12.8388C59.6437 13.0857 60.1123 13.2092 60.6036 13.2092C61.1064 13.2092 61.5749 13.0857 62.0092 12.8388C62.4434 12.5919 62.7919 12.2327 63.0548 11.7614C63.329 11.2788 63.4661 10.7176 63.4661 10.0779Z" fill="#F7F9FF"/>
<path d="M69.9579 6.8287C70.2893 6.37977 70.7407 6.01501 71.312 5.73443C71.8948 5.44262 72.5405 5.29672 73.2489 5.29672C74.0831 5.29672 74.8373 5.49313 75.5115 5.88594C76.1857 6.27876 76.7171 6.83993 77.1056 7.56944C77.4941 8.28774 77.6884 9.11265 77.6884 10.0442C77.6884 10.9757 77.4941 11.8119 77.1056 12.5526C76.7171 13.2821 76.18 13.8545 75.4944 14.2698C74.8202 14.6738 74.0717 14.8758 73.2489 14.8758C72.5176 14.8758 71.8663 14.7356 71.2949 14.455C70.735 14.1744 70.2893 13.8152 69.9579 13.3775V14.7243H68.0039V2.26641H69.9579V6.8287ZM75.7001 10.0442C75.7001 9.40446 75.5629 8.85452 75.2887 8.39436C75.0259 7.92298 74.6716 7.56944 74.226 7.33375C73.7917 7.08684 73.3232 6.96338 72.8204 6.96338C72.3291 6.96338 71.8605 7.08684 71.4149 7.33375C70.9806 7.58067 70.6264 7.93981 70.3521 8.41119C70.0893 8.88257 69.9579 9.43813 69.9579 10.0779C69.9579 10.7176 70.0893 11.2788 70.3521 11.7614C70.6264 12.2327 70.9806 12.5919 71.4149 12.8388C71.8605 13.0857 72.3291 13.2092 72.8204 13.2092C73.3232 13.2092 73.7917 13.0857 74.226 12.8388C74.6716 12.5807 75.0259 12.2103 75.2887 11.7277C75.5629 11.2451 75.7001 10.6839 75.7001 10.0442Z" fill="#F7F9FF"/>
<path d="M83.7174 14.8758C82.8261 14.8758 82.0204 14.6794 81.3005 14.2866C80.5806 13.8826 80.015 13.3214 79.6036 12.6031C79.1922 11.8736 78.9865 11.0318 78.9865 10.0779C78.9865 9.1351 79.1979 8.29896 79.6207 7.56944C80.0435 6.83993 80.6206 6.27876 81.352 5.88594C82.0833 5.49313 82.9003 5.29672 83.8031 5.29672C84.7058 5.29672 85.5229 5.49313 86.2542 5.88594C86.9855 6.27876 87.5626 6.83993 87.9854 7.56944C88.4082 8.29896 88.6196 9.1351 88.6196 10.0779C88.6196 11.0206 88.4025 11.8568 87.9683 12.5863C87.534 13.3158 86.9398 13.8826 86.1856 14.2866C85.4429 14.6794 84.6201 14.8758 83.7174 14.8758ZM83.7174 13.2092C84.2202 13.2092 84.6887 13.0913 85.1229 12.8556C85.5686 12.6199 85.9285 12.2664 86.2028 11.795C86.477 11.3237 86.6142 10.7513 86.6142 10.0779C86.6142 9.40446 86.4827 8.83768 86.2199 8.37753C85.9571 7.90614 85.6086 7.55261 85.1743 7.31692C84.7401 7.08123 84.2716 6.96338 83.7688 6.96338C83.266 6.96338 82.7975 7.08123 82.3633 7.31692C81.9405 7.55261 81.6034 7.90614 81.352 8.37753C81.1006 8.83768 80.9749 9.40446 80.9749 10.0779C80.9749 11.0767 81.232 11.8511 81.7462 12.4011C82.2718 12.9398 82.9289 13.2092 83.7174 13.2092Z" fill="#F7F9FF"/>
<path d="M99.1046 5.44823V14.7243H97.1505V13.63C96.842 14.0116 96.4363 14.3147 95.9335 14.5391C95.4421 14.7524 94.9165 14.859 94.3565 14.859C93.6138 14.859 92.9453 14.7075 92.3511 14.4045C91.7683 14.1014 91.3055 13.6525 90.9627 13.0577C90.6313 12.4628 90.4656 11.7445 90.4656 10.9028V5.44823H92.4025V10.6166C92.4025 11.4471 92.6139 12.0868 93.0367 12.5358C93.4595 12.9735 94.0366 13.1923 94.7679 13.1923C95.4993 13.1923 96.0764 12.9735 96.4992 12.5358C96.9334 12.0868 97.1505 11.4471 97.1505 10.6166V5.44823H99.1046Z" fill="#F7F9FF"/>
<path d="M103.962 7.01389V12.1486C103.962 12.4965 104.042 12.749 104.202 12.9061C104.374 13.052 104.66 13.125 105.059 13.125H106.259V14.7243H104.717C103.837 14.7243 103.163 14.5223 102.694 14.1183C102.226 13.7142 101.991 13.0577 101.991 12.1486V7.01389H100.877V5.44823H101.991V3.14183H103.962V5.44823H106.259V7.01389H103.962Z" fill="#F7F9FF"/>
<path d="M23.4485 27.1717H7.81618L4.93653 35H0L12.9584 0H18.3577L31.2647 35H26.3282L23.4485 27.1717ZM22.1116 23.4343L15.6324 5.65656L9.15315 23.4343H22.1116Z" fill="#F7F9FF"/>
</svg>
