<svg id="visual" viewBox="0 0 1440 150" width="1440" height="150" xmlns="http://www.w3.org/2000/svg" xmlns:xlink="http://www.w3.org/1999/xlink" version="1.1"><rect x="0" y="0" width="1440" height="150" fill="#F7F9FF"></rect><path d="M0 42L17.2 41.5C34.3 41 68.7 40 103 37.8C137.3 35.7 171.7 32.3 206 31C240.3 29.7 274.7 30.3 308.8 38.5C343 46.7 377 62.3 411.2 61.7C445.3 61 479.7 44 514 37.7C548.3 31.3 582.7 35.7 617 43C651.3 50.3 685.7 60.7 720 64.5C754.3 68.3 788.7 65.7 823 63.3C857.3 61 891.7 59 926 57C960.3 55 994.7 53 1028.8 52.3C1063 51.7 1097 52.3 1131.2 54.5C1165.3 56.7 1199.7 60.3 1234 59C1268.3 57.7 1302.7 51.3 1337 50.7C1371.3 50 1405.7 55 1422.8 57.5L1440 60L1440 151L1422.8 151C1405.7 151 1371.3 151 1337 151C1302.7 151 1268.3 151 1234 151C1199.7 151 1165.3 151 1131.2 151C1097 151 1063 151 1028.8 151C994.7 151 960.3 151 926 151C891.7 151 857.3 151 823 151C788.7 151 754.3 151 720 151C685.7 151 651.3 151 617 151C582.7 151 548.3 151 514 151C479.7 151 445.3 151 411.2 151C377 151 343 151 308.8 151C274.7 151 240.3 151 206 151C171.7 151 137.3 151 103 151C68.7 151 34.3 151 17.2 151L0 151Z" fill="#d1dee5"></path><path d="M0 73L17.2 69.3C34.3 65.7 68.7 58.3 103 58.3C137.3 58.3 171.7 65.7 206 71.3C240.3 77 274.7 81 308.8 75.7C343 70.3 377 55.7 411.2 49C445.3 42.3 479.7 43.7 514 44.3C548.3 45 582.7 45 617 44.8C651.3 44.7 685.7 44.3 720 44C754.3 43.7 788.7 43.3 823 44.8C857.3 46.3 891.7 49.7 926 51.3C960.3 53 994.7 53 1028.8 53C1063 53 1097 53 1131.2 55.5C1165.3 58 1199.7 63 1234 68C1268.3 73 1302.7 78 1337 74.5C1371.3 71 1405.7 59 1422.8 53L1440 47L1440 151L1422.8 151C1405.7 151 1371.3 151 1337 151C1302.7 151 1268.3 151 1234 151C1199.7 151 1165.3 151 1131.2 151C1097 151 1063 151 1028.8 151C994.7 151 960.3 151 926 151C891.7 151 857.3 151 823 151C788.7 151 754.3 151 720 151C685.7 151 651.3 151 617 151C582.7 151 548.3 151 514 151C479.7 151 445.3 151 411.2 151C377 151 343 151 308.8 151C274.7 151 240.3 151 206 151C171.7 151 137.3 151 103 151C68.7 151 34.3 151 17.2 151L0 151Z" fill="#acc2d2"></path><path d="M0 61L17.2 61.8C34.3 62.7 68.7 64.3 103 67.5C137.3 70.7 171.7 75.3 206 76.3C240.3 77.3 274.7 74.7 308.8 77.7C343 80.7 377 89.3 411.2 92.7C445.3 96 479.7 94 514 92C548.3 90 582.7 88 617 88C651.3 88 685.7 90 720 87.8C754.3 85.7 788.7 79.3 823 75.3C857.3 71.3 891.7 69.7 926 72.3C960.3 75 994.7 82 1028.8 83.3C1063 84.7 1097 80.3 1131.2 80.3C1165.3 80.3 1199.7 84.7 1234 85.2C1268.3 85.7 1302.7 82.3 1337 78.7C1371.3 75 1405.7 71 1422.8 69L1440 67L1440 151L1422.8 151C1405.7 151 1371.3 151 1337 151C1302.7 151 1268.3 151 1234 151C1199.7 151 1165.3 151 1131.2 151C1097 151 1063 151 1028.8 151C994.7 151 960.3 151 926 151C891.7 151 857.3 151 823 151C788.7 151 754.3 151 720 151C685.7 151 651.3 151 617 151C582.7 151 548.3 151 514 151C479.7 151 445.3 151 411.2 151C377 151 343 151 308.8 151C274.7 151 240.3 151 206 151C171.7 151 137.3 151 103 151C68.7 151 34.3 151 17.2 151L0 151Z" fill="#8aa7bf"></path><path d="M0 80L17.2 81.2C34.3 82.3 68.7 84.7 103 84C137.3 83.3 171.7 79.7 206 82C240.3 84.3 274.7 92.7 308.8 94.5C343 96.3 377 91.7 411.2 87.2C445.3 82.7 479.7 78.3 514 79.2C548.3 80 582.7 86 617 87C651.3 88 685.7 84 720 82.3C754.3 80.7 788.7 81.3 823 80.3C857.3 79.3 891.7 76.7 926 77.3C960.3 78 994.7 82 1028.8 84.3C1063 86.7 1097 87.3 1131.2 85.3C1165.3 83.3 1199.7 78.7 1234 80.5C1268.3 82.3 1302.7 90.7 1337 91.3C1371.3 92 1405.7 85 1422.8 81.5L1440 78L1440 151L1422.8 151C1405.7 151 1371.3 151 1337 151C1302.7 151 1268.3 151 1234 151C1199.7 151 1165.3 151 1131.2 151C1097 151 1063 151 1028.8 151C994.7 151 960.3 151 926 151C891.7 151 857.3 151 823 151C788.7 151 754.3 151 720 151C685.7 151 651.3 151 617 151C582.7 151 548.3 151 514 151C479.7 151 445.3 151 411.2 151C377 151 343 151 308.8 151C274.7 151 240.3 151 206 151C171.7 151 137.3 151 103 151C68.7 151 34.3 151 17.2 151L0 151Z" fill="#6b8bad"></path><path d="M0 94L17.2 93.8C34.3 93.7 68.7 93.3 103 97.3C137.3 101.3 171.7 109.7 206 110C240.3 110.3 274.7 102.7 308.8 101.3C343 100 377 105 411.2 107.2C445.3 109.3 479.7 108.7 514 107.2C548.3 105.7 582.7 103.3 617 102.3C651.3 101.3 685.7 101.7 720 102.8C754.3 104 788.7 106 823 106.2C857.3 106.3 891.7 104.7 926 104.5C960.3 104.3 994.7 105.7 1028.8 106.2C1063 106.7 1097 106.3 1131.2 107C1165.3 107.7 1199.7 109.3 1234 111.3C1268.3 113.3 1302.7 115.7 1337 115.5C1371.3 115.3 1405.7 112.7 1422.8 111.3L1440 110L1440 151L1422.8 151C1405.7 151 1371.3 151 1337 151C1302.7 151 1268.3 151 1234 151C1199.7 151 1165.3 151 1131.2 151C1097 151 1063 151 1028.8 151C994.7 151 960.3 151 926 151C891.7 151 857.3 151 823 151C788.7 151 754.3 151 720 151C685.7 151 651.3 151 617 151C582.7 151 548.3 151 514 151C479.7 151 445.3 151 411.2 151C377 151 343 151 308.8 151C274.7 151 240.3 151 206 151C171.7 151 137.3 151 103 151C68.7 151 34.3 151 17.2 151L0 151Z" fill="#50709b"></path><path d="M0 109L17.2 112C34.3 115 68.7 121 103 122.3C137.3 123.7 171.7 120.3 206 118.2C240.3 116 274.7 115 308.8 114C343 113 377 112 411.2 111.7C445.3 111.3 479.7 111.7 514 112.5C548.3 113.3 582.7 114.7 617 115.2C651.3 115.7 685.7 115.3 720 115C754.3 114.7 788.7 114.3 823 114C857.3 113.7 891.7 113.3 926 115.2C960.3 117 994.7 121 1028.8 123.2C1063 125.3 1097 125.7 1131.2 125.3C1165.3 125 1199.7 124 1234 123.7C1268.3 123.3 1302.7 123.7 1337 122C1371.3 120.3 1405.7 116.7 1422.8 114.8L1440 113L1440 151L1422.8 151C1405.7 151 1371.3 151 1337 151C1302.7 151 1268.3 151 1234 151C1199.7 151 1165.3 151 1131.2 151C1097 151 1063 151 1028.8 151C994.7 151 960.3 151 926 151C891.7 151 857.3 151 823 151C788.7 151 754.3 151 720 151C685.7 151 651.3 151 617 151C582.7 151 548.3 151 514 151C479.7 151 445.3 151 411.2 151C377 151 343 151 308.8 151C274.7 151 240.3 151 206 151C171.7 151 137.3 151 103 151C68.7 151 34.3 151 17.2 151L0 151Z" fill="#385587"></path><path d="M0 132L17.2 131.5C34.3 131 68.7 130 103 130C137.3 130 171.7 131 206 132.3C240.3 133.7 274.7 135.3 308.8 135.8C343 136.3 377 135.7 411.2 133.3C445.3 131 479.7 127 514 127.7C548.3 128.3 582.7 133.7 617 134.7C651.3 135.7 685.7 132.3 720 130.7C754.3 129 788.7 129 823 128.8C857.3 128.7 891.7 128.3 926 129.5C960.3 130.7 994.7 133.3 1028.8 134.8C1063 136.3 1097 136.7 1131.2 135.3C1165.3 134 1199.7 131 1234 129.2C1268.3 127.3 1302.7 126.7 1337 126.5C1371.3 126.3 1405.7 126.7 1422.8 126.8L1440 127L1440 151L1422.8 151C1405.7 151 1371.3 151 1337 151C1302.7 151 1268.3 151 1234 151C1199.7 151 1165.3 151 1131.2 151C1097 151 1063 151 1028.8 151C994.7 151 960.3 151 926 151C891.7 151 857.3 151 823 151C788.7 151 754.3 151 720 151C685.7 151 651.3 151 617 151C582.7 151 548.3 151 514 151C479.7 151 445.3 151 411.2 151C377 151 343 151 308.8 151C274.7 151 240.3 151 206 151C171.7 151 137.3 151 103 151C68.7 151 34.3 151 17.2 151L0 151Z" fill="#243a73"></path></svg>