<svg id="visual" viewBox="0 0 1440 100" width="1440" height="100" xmlns="http://www.w3.org/2000/svg" xmlns:xlink="http://www.w3.org/1999/xlink" version="1.1"><rect x="0" y="0" width="1440" height="100" fill="#243A73"></rect><path d="M0 27L17.2 26.7C34.3 26.3 68.7 25.7 103 24.3C137.3 23 171.7 21 206 20.2C240.3 19.3 274.7 19.7 308.8 25C343 30.3 377 40.7 411.2 40.3C445.3 40 479.7 29 514 24.8C548.3 20.7 582.7 23.3 617 28.2C651.3 33 685.7 40 720 42.5C754.3 45 788.7 43 823 41.5C857.3 40 891.7 39 926 37.7C960.3 36.3 994.7 34.7 1028.8 34.2C1063 33.7 1097 34.3 1131.2 35.8C1165.3 37.3 1199.7 39.7 1234 38.7C1268.3 37.7 1302.7 33.3 1337 33C1371.3 32.7 1405.7 36.3 1422.8 38.2L1440 40L1440 101L1422.8 101C1405.7 101 1371.3 101 1337 101C1302.7 101 1268.3 101 1234 101C1199.7 101 1165.3 101 1131.2 101C1097 101 1063 101 1028.8 101C994.7 101 960.3 101 926 101C891.7 101 857.3 101 823 101C788.7 101 754.3 101 720 101C685.7 101 651.3 101 617 101C582.7 101 548.3 101 514 101C479.7 101 445.3 101 411.2 101C377 101 343 101 308.8 101C274.7 101 240.3 101 206 101C171.7 101 137.3 101 103 101C68.7 101 34.3 101 17.2 101L0 101Z" fill="#243a73"></path><path d="M0 48L17.2 45.7C34.3 43.3 68.7 38.7 103 38.7C137.3 38.7 171.7 43.3 206 47C240.3 50.7 274.7 53.3 308.8 49.8C343 46.3 377 36.7 411.2 32.2C445.3 27.7 479.7 28.3 514 28.8C548.3 29.3 582.7 29.7 617 29.7C651.3 29.7 685.7 29.3 720 29.2C754.3 29 788.7 29 823 30C857.3 31 891.7 33 926 34C960.3 35 994.7 35 1028.8 35C1063 35 1097 35 1131.2 36.7C1165.3 38.3 1199.7 41.7 1234 45C1268.3 48.3 1302.7 51.7 1337 49.3C1371.3 47 1405.7 39 1422.8 35L1440 31L1440 101L1422.8 101C1405.7 101 1371.3 101 1337 101C1302.7 101 1268.3 101 1234 101C1199.7 101 1165.3 101 1131.2 101C1097 101 1063 101 1028.8 101C994.7 101 960.3 101 926 101C891.7 101 857.3 101 823 101C788.7 101 754.3 101 720 101C685.7 101 651.3 101 617 101C582.7 101 548.3 101 514 101C479.7 101 445.3 101 411.2 101C377 101 343 101 308.8 101C274.7 101 240.3 101 206 101C171.7 101 137.3 101 103 101C68.7 101 34.3 101 17.2 101L0 101Z" fill="#173465"></path><path d="M0 40L17.2 40.7C34.3 41.3 68.7 42.7 103 44.8C137.3 47 171.7 50 206 50.7C240.3 51.3 274.7 49.7 308.8 51.7C343 53.7 377 59.3 411.2 61.5C445.3 63.7 479.7 62.3 514 61C548.3 59.7 582.7 58.3 617 58.3C651.3 58.3 685.7 59.7 720 58.2C754.3 56.7 788.7 52.3 823 49.7C857.3 47 891.7 46 926 47.8C960.3 49.7 994.7 54.3 1028.8 55.2C1063 56 1097 53 1131.2 53C1165.3 53 1199.7 56 1234 56.5C1268.3 57 1302.7 55 1337 52.7C1371.3 50.3 1405.7 47.7 1422.8 46.3L1440 45L1440 101L1422.8 101C1405.7 101 1371.3 101 1337 101C1302.7 101 1268.3 101 1234 101C1199.7 101 1165.3 101 1131.2 101C1097 101 1063 101 1028.8 101C994.7 101 960.3 101 926 101C891.7 101 857.3 101 823 101C788.7 101 754.3 101 720 101C685.7 101 651.3 101 617 101C582.7 101 548.3 101 514 101C479.7 101 445.3 101 411.2 101C377 101 343 101 308.8 101C274.7 101 240.3 101 206 101C171.7 101 137.3 101 103 101C68.7 101 34.3 101 17.2 101L0 101Z" fill="#0c2e57"></path><path d="M0 53L17.2 53.8C34.3 54.7 68.7 56.3 103 55.8C137.3 55.3 171.7 52.7 206 54.2C240.3 55.7 274.7 61.3 308.8 62.7C343 64 377 61 411.2 58C445.3 55 479.7 52 514 52.5C548.3 53 582.7 57 617 57.7C651.3 58.3 685.7 55.7 720 54.5C754.3 53.3 788.7 53.7 823 53C857.3 52.3 891.7 50.7 926 51.2C960.3 51.7 994.7 54.3 1028.8 55.8C1063 57.3 1097 57.7 1131.2 56.3C1165.3 55 1199.7 52 1234 53.3C1268.3 54.7 1302.7 60.3 1337 60.8C1371.3 61.3 1405.7 56.7 1422.8 54.3L1440 52L1440 101L1422.8 101C1405.7 101 1371.3 101 1337 101C1302.7 101 1268.3 101 1234 101C1199.7 101 1165.3 101 1131.2 101C1097 101 1063 101 1028.8 101C994.7 101 960.3 101 926 101C891.7 101 857.3 101 823 101C788.7 101 754.3 101 720 101C685.7 101 651.3 101 617 101C582.7 101 548.3 101 514 101C479.7 101 445.3 101 411.2 101C377 101 343 101 308.8 101C274.7 101 240.3 101 206 101C171.7 101 137.3 101 103 101C68.7 101 34.3 101 17.2 101L0 101Z" fill="#042749"></path><path d="M0 63L17.2 62.8C34.3 62.7 68.7 62.3 103 65C137.3 67.7 171.7 73.3 206 73.5C240.3 73.7 274.7 68.3 308.8 67.3C343 66.3 377 69.7 411.2 71.2C445.3 72.7 479.7 72.3 514 71.3C548.3 70.3 582.7 68.7 617 67.8C651.3 67 685.7 67 720 67.7C754.3 68.3 788.7 69.7 823 69.8C857.3 70 891.7 69 926 69C960.3 69 994.7 70 1028.8 70.3C1063 70.7 1097 70.3 1131.2 70.8C1165.3 71.3 1199.7 72.7 1234 74.2C1268.3 75.7 1302.7 77.3 1337 77.2C1371.3 77 1405.7 75 1422.8 74L1440 73L1440 101L1422.8 101C1405.7 101 1371.3 101 1337 101C1302.7 101 1268.3 101 1234 101C1199.7 101 1165.3 101 1131.2 101C1097 101 1063 101 1028.8 101C994.7 101 960.3 101 926 101C891.7 101 857.3 101 823 101C788.7 101 754.3 101 720 101C685.7 101 651.3 101 617 101C582.7 101 548.3 101 514 101C479.7 101 445.3 101 411.2 101C377 101 343 101 308.8 101C274.7 101 240.3 101 206 101C171.7 101 137.3 101 103 101C68.7 101 34.3 101 17.2 101L0 101Z" fill="#01203b"></path><path d="M0 72L17.2 74C34.3 76 68.7 80 103 81C137.3 82 171.7 80 206 78.7C240.3 77.3 274.7 76.7 308.8 76C343 75.3 377 74.7 411.2 74.3C445.3 74 479.7 74 514 74.5C548.3 75 582.7 76 617 76.5C651.3 77 685.7 77 720 76.8C754.3 76.7 788.7 76.3 823 76C857.3 75.7 891.7 75.3 926 76.5C960.3 77.7 994.7 80.3 1028.8 81.8C1063 83.3 1097 83.7 1131.2 83.5C1165.3 83.3 1199.7 82.7 1234 82.5C1268.3 82.3 1302.7 82.7 1337 81.5C1371.3 80.3 1405.7 77.7 1422.8 76.3L1440 75L1440 101L1422.8 101C1405.7 101 1371.3 101 1337 101C1302.7 101 1268.3 101 1234 101C1199.7 101 1165.3 101 1131.2 101C1097 101 1063 101 1028.8 101C994.7 101 960.3 101 926 101C891.7 101 857.3 101 823 101C788.7 101 754.3 101 720 101C685.7 101 651.3 101 617 101C582.7 101 548.3 101 514 101C479.7 101 445.3 101 411.2 101C377 101 343 101 308.8 101C274.7 101 240.3 101 206 101C171.7 101 137.3 101 103 101C68.7 101 34.3 101 17.2 101L0 101Z" fill="#021a2d"></path><path d="M0 88L17.2 87.7C34.3 87.3 68.7 86.7 103 86.7C137.3 86.7 171.7 87.3 206 88.2C240.3 89 274.7 90 308.8 90.2C343 90.3 377 89.7 411.2 88C445.3 86.3 479.7 83.7 514 84.2C548.3 84.7 582.7 88.3 617 89.2C651.3 90 685.7 88 720 87C754.3 86 788.7 86 823 85.8C857.3 85.7 891.7 85.3 926 86C960.3 86.7 994.7 88.3 1028.8 89.3C1063 90.3 1097 90.7 1131.2 89.8C1165.3 89 1199.7 87 1234 85.8C1268.3 84.7 1302.7 84.3 1337 84.2C1371.3 84 1405.7 84 1422.8 84L1440 84L1440 101L1422.8 101C1405.7 101 1371.3 101 1337 101C1302.7 101 1268.3 101 1234 101C1199.7 101 1165.3 101 1131.2 101C1097 101 1063 101 1028.8 101C994.7 101 960.3 101 926 101C891.7 101 857.3 101 823 101C788.7 101 754.3 101 720 101C685.7 101 651.3 101 617 101C582.7 101 548.3 101 514 101C479.7 101 445.3 101 411.2 101C377 101 343 101 308.8 101C274.7 101 240.3 101 206 101C171.7 101 137.3 101 103 101C68.7 101 34.3 101 17.2 101L0 101Z" fill="#001220"></path></svg>