<svg id="visual" viewBox="0 0 1440 50" width="1440" height="50" xmlns="http://www.w3.org/2000/svg" xmlns:xlink="http://www.w3.org/1999/xlink" version="1.1"><rect x="0" y="0" width="1440" height="50" fill="#243A73"></rect><path d="M0 13L17.2 12.8C34.3 12.7 68.7 12.3 103 11.7C137.3 11 171.7 10 206 9.7C240.3 9.3 274.7 9.7 308.8 12.3C343 15 377 20 411.2 19.7C445.3 19.3 479.7 13.7 514 11.7C548.3 9.7 582.7 11.3 617 13.8C651.3 16.3 685.7 19.7 720 20.8C754.3 22 788.7 21 823 20.2C857.3 19.3 891.7 18.7 926 18C960.3 17.3 994.7 16.7 1028.8 16.5C1063 16.3 1097 16.7 1131.2 17.5C1165.3 18.3 1199.7 19.7 1234 19.2C1268.3 18.7 1302.7 16.3 1337 16C1371.3 15.7 1405.7 17.3 1422.8 18.2L1440 19L1440 51L1422.8 51C1405.7 51 1371.3 51 1337 51C1302.7 51 1268.3 51 1234 51C1199.7 51 1165.3 51 1131.2 51C1097 51 1063 51 1028.8 51C994.7 51 960.3 51 926 51C891.7 51 857.3 51 823 51C788.7 51 754.3 51 720 51C685.7 51 651.3 51 617 51C582.7 51 548.3 51 514 51C479.7 51 445.3 51 411.2 51C377 51 343 51 308.8 51C274.7 51 240.3 51 206 51C171.7 51 137.3 51 103 51C68.7 51 34.3 51 17.2 51L0 51Z" fill="#243a73"></path><path d="M0 24L17.2 22.7C34.3 21.3 68.7 18.7 103 18.7C137.3 18.7 171.7 21.3 206 23.3C240.3 25.3 274.7 26.7 308.8 24.8C343 23 377 18 411.2 15.7C445.3 13.3 479.7 13.7 514 13.8C548.3 14 582.7 14 617 14C651.3 14 685.7 14 720 14C754.3 14 788.7 14 823 14.5C857.3 15 891.7 16 926 16.5C960.3 17 994.7 17 1028.8 17C1063 17 1097 17 1131.2 17.8C1165.3 18.7 1199.7 20.3 1234 22C1268.3 23.7 1302.7 25.3 1337 24.2C1371.3 23 1405.7 19 1422.8 17L1440 15L1440 51L1422.8 51C1405.7 51 1371.3 51 1337 51C1302.7 51 1268.3 51 1234 51C1199.7 51 1165.3 51 1131.2 51C1097 51 1063 51 1028.8 51C994.7 51 960.3 51 926 51C891.7 51 857.3 51 823 51C788.7 51 754.3 51 720 51C685.7 51 651.3 51 617 51C582.7 51 548.3 51 514 51C479.7 51 445.3 51 411.2 51C377 51 343 51 308.8 51C274.7 51 240.3 51 206 51C171.7 51 137.3 51 103 51C68.7 51 34.3 51 17.2 51L0 51Z" fill="#173465"></path><path d="M0 20L17.2 20.2C34.3 20.3 68.7 20.7 103 21.7C137.3 22.7 171.7 24.3 206 24.7C240.3 25 274.7 24 308.8 25C343 26 377 29 411.2 30.2C445.3 31.3 479.7 30.7 514 30C548.3 29.3 582.7 28.7 617 28.7C651.3 28.7 685.7 29.3 720 28.7C754.3 28 788.7 26 823 24.7C857.3 23.3 891.7 22.7 926 23.5C960.3 24.3 994.7 26.7 1028.8 27.2C1063 27.7 1097 26.3 1131.2 26.3C1165.3 26.3 1199.7 27.7 1234 27.8C1268.3 28 1302.7 27 1337 25.8C1371.3 24.7 1405.7 23.3 1422.8 22.7L1440 22L1440 51L1422.8 51C1405.7 51 1371.3 51 1337 51C1302.7 51 1268.3 51 1234 51C1199.7 51 1165.3 51 1131.2 51C1097 51 1063 51 1028.8 51C994.7 51 960.3 51 926 51C891.7 51 857.3 51 823 51C788.7 51 754.3 51 720 51C685.7 51 651.3 51 617 51C582.7 51 548.3 51 514 51C479.7 51 445.3 51 411.2 51C377 51 343 51 308.8 51C274.7 51 240.3 51 206 51C171.7 51 137.3 51 103 51C68.7 51 34.3 51 17.2 51L0 51Z" fill="#0c2e57"></path><path d="M0 26L17.2 26.3C34.3 26.7 68.7 27.3 103 27.2C137.3 27 171.7 26 206 26.8C240.3 27.7 274.7 30.3 308.8 30.8C343 31.3 377 29.7 411.2 28.2C445.3 26.7 479.7 25.3 514 25.7C548.3 26 582.7 28 617 28.3C651.3 28.7 685.7 27.3 720 26.8C754.3 26.3 788.7 26.7 823 26.3C857.3 26 891.7 25 926 25.2C960.3 25.3 994.7 26.7 1028.8 27.5C1063 28.3 1097 28.7 1131.2 28C1165.3 27.3 1199.7 25.7 1234 26.2C1268.3 26.7 1302.7 29.3 1337 29.5C1371.3 29.7 1405.7 27.3 1422.8 26.2L1440 25L1440 51L1422.8 51C1405.7 51 1371.3 51 1337 51C1302.7 51 1268.3 51 1234 51C1199.7 51 1165.3 51 1131.2 51C1097 51 1063 51 1028.8 51C994.7 51 960.3 51 926 51C891.7 51 857.3 51 823 51C788.7 51 754.3 51 720 51C685.7 51 651.3 51 617 51C582.7 51 548.3 51 514 51C479.7 51 445.3 51 411.2 51C377 51 343 51 308.8 51C274.7 51 240.3 51 206 51C171.7 51 137.3 51 103 51C68.7 51 34.3 51 17.2 51L0 51Z" fill="#042749"></path><path d="M0 31L17.2 30.8C34.3 30.7 68.7 30.3 103 31.7C137.3 33 171.7 36 206 36.2C240.3 36.3 274.7 33.7 308.8 33.2C343 32.7 377 34.3 411.2 35C445.3 35.7 479.7 35.3 514 34.8C548.3 34.3 582.7 33.7 617 33.3C651.3 33 685.7 33 720 33.3C754.3 33.7 788.7 34.3 823 34.5C857.3 34.7 891.7 34.3 926 34.3C960.3 34.3 994.7 34.7 1028.8 34.8C1063 35 1097 35 1131.2 35.2C1165.3 35.3 1199.7 35.7 1234 36.3C1268.3 37 1302.7 38 1337 38C1371.3 38 1405.7 37 1422.8 36.5L1440 36L1440 51L1422.8 51C1405.7 51 1371.3 51 1337 51C1302.7 51 1268.3 51 1234 51C1199.7 51 1165.3 51 1131.2 51C1097 51 1063 51 1028.8 51C994.7 51 960.3 51 926 51C891.7 51 857.3 51 823 51C788.7 51 754.3 51 720 51C685.7 51 651.3 51 617 51C582.7 51 548.3 51 514 51C479.7 51 445.3 51 411.2 51C377 51 343 51 308.8 51C274.7 51 240.3 51 206 51C171.7 51 137.3 51 103 51C68.7 51 34.3 51 17.2 51L0 51Z" fill="#01203b"></path><path d="M0 36L17.2 37C34.3 38 68.7 40 103 40.3C137.3 40.7 171.7 39.3 206 38.5C240.3 37.7 274.7 37.3 308.8 37C343 36.7 377 36.3 411.2 36.3C445.3 36.3 479.7 36.7 514 37C548.3 37.3 582.7 37.7 617 37.8C651.3 38 685.7 38 720 37.8C754.3 37.7 788.7 37.3 823 37.2C857.3 37 891.7 37 926 37.7C960.3 38.3 994.7 39.7 1028.8 40.3C1063 41 1097 41 1131.2 40.8C1165.3 40.7 1199.7 40.3 1234 40.3C1268.3 40.3 1302.7 40.7 1337 40.2C1371.3 39.7 1405.7 38.3 1422.8 37.7L1440 37L1440 51L1422.8 51C1405.7 51 1371.3 51 1337 51C1302.7 51 1268.3 51 1234 51C1199.7 51 1165.3 51 1131.2 51C1097 51 1063 51 1028.8 51C994.7 51 960.3 51 926 51C891.7 51 857.3 51 823 51C788.7 51 754.3 51 720 51C685.7 51 651.3 51 617 51C582.7 51 548.3 51 514 51C479.7 51 445.3 51 411.2 51C377 51 343 51 308.8 51C274.7 51 240.3 51 206 51C171.7 51 137.3 51 103 51C68.7 51 34.3 51 17.2 51L0 51Z" fill="#021a2d"></path><path d="M0 43L17.2 42.8C34.3 42.7 68.7 42.3 103 42.3C137.3 42.3 171.7 42.7 206 43.2C240.3 43.7 274.7 44.3 308.8 44.5C343 44.7 377 44.3 411.2 43.5C445.3 42.7 479.7 41.3 514 41.7C548.3 42 582.7 44 617 44.3C651.3 44.7 685.7 43.3 720 42.7C754.3 42 788.7 42 823 42C857.3 42 891.7 42 926 42.5C960.3 43 994.7 44 1028.8 44.5C1063 45 1097 45 1131.2 44.5C1165.3 44 1199.7 43 1234 42.3C1268.3 41.7 1302.7 41.3 1337 41.3C1371.3 41.3 1405.7 41.7 1422.8 41.8L1440 42L1440 51L1422.8 51C1405.7 51 1371.3 51 1337 51C1302.7 51 1268.3 51 1234 51C1199.7 51 1165.3 51 1131.2 51C1097 51 1063 51 1028.8 51C994.7 51 960.3 51 926 51C891.7 51 857.3 51 823 51C788.7 51 754.3 51 720 51C685.7 51 651.3 51 617 51C582.7 51 548.3 51 514 51C479.7 51 445.3 51 411.2 51C377 51 343 51 308.8 51C274.7 51 240.3 51 206 51C171.7 51 137.3 51 103 51C68.7 51 34.3 51 17.2 51L0 51Z" fill="#001220"></path></svg>