<svg id="visual" viewBox="0 0 900 600" width="900" height="600" xmlns="http://www.w3.org/2000/svg" xmlns:xlink="http://www.w3.org/1999/xlink" version="1.1"><rect x="0" y="0" width="900" height="600" fill="#001220"></rect><path d="M0 516L21.5 511C43 506 86 496 128.8 487.8C171.7 479.7 214.3 473.3 257.2 471.5C300 469.7 343 472.3 385.8 460.7C428.7 449 471.3 423 514.2 423.7C557 424.3 600 451.7 642.8 456.3C685.7 461 728.3 443 771.2 440.2C814 437.3 857 449.7 878.5 455.8L900 462L900 601L878.5 601C857 601 814 601 771.2 601C728.3 601 685.7 601 642.8 601C600 601 557 601 514.2 601C471.3 601 428.7 601 385.8 601C343 601 300 601 257.2 601C214.3 601 171.7 601 128.8 601C86 601 43 601 21.5 601L0 601Z" fill="#F7F9FF" stroke-linecap="round" stroke-linejoin="miter"></path></svg>