<svg id="visual" viewBox="0 0 1440 50" width="1440" height="50" xmlns="http://www.w3.org/2000/svg" xmlns:xlink="http://www.w3.org/1999/xlink" version="1.1"><rect x="0" y="0" width="1440" height="50" fill="#001220"></rect><path d="M0 21L24 19.3C48 17.7 96 14.3 144 14.7C192 15 240 19 288 20.3C336 21.7 384 20.3 432 22C480 23.7 528 28.3 576 28.5C624 28.7 672 24.3 720 19.2C768 14 816 8 864 6.8C912 5.7 960 9.3 1008 11.3C1056 13.3 1104 13.7 1152 14C1200 14.3 1248 14.7 1296 17.8C1344 21 1392 27 1416 30L1440 33L1440 0L1416 0C1392 0 1344 0 1296 0C1248 0 1200 0 1152 0C1104 0 1056 0 1008 0C960 0 912 0 864 0C816 0 768 0 720 0C672 0 624 0 576 0C528 0 480 0 432 0C384 0 336 0 288 0C240 0 192 0 144 0C96 0 48 0 24 0L0 0Z" fill="#F7F9FF" stroke-linecap="round" stroke-linejoin="miter"></path></svg>