<svg id="visual" viewBox="0 0 1440 50" width="1440" height="50" xmlns="http://www.w3.org/2000/svg" xmlns:xlink="http://www.w3.org/1999/xlink" version="1.1"><rect x="0" y="0" width="1440" height="50" fill="#001220"></rect><path d="M0 22L40 22.2C80 22.3 160 22.7 240 22.5C320 22.3 400 21.7 480 25.7C560 29.7 640 38.3 720 42.3C800 46.3 880 45.7 960 43.2C1040 40.7 1120 36.3 1200 34.2C1280 32 1360 32 1400 32L1440 32L1440 51L1400 51C1360 51 1280 51 1200 51C1120 51 1040 51 960 51C880 51 800 51 720 51C640 51 560 51 480 51C400 51 320 51 240 51C160 51 80 51 40 51L0 51Z" fill="#F7F9FF" stroke-linecap="round" stroke-linejoin="miter"></path></svg>