<svg id="visual" viewBox="0 0 960 540" width="960" height="540" xmlns="http://www.w3.org/2000/svg" xmlns:xlink="http://www.w3.org/1999/xlink" version="1.1"><rect x="0" y="0" width="960" height="540" fill="#001220"></rect><path d="M0 464L22.8 459.7C45.7 455.3 91.3 446.7 137 439.5C182.7 432.3 228.3 426.7 274 424.8C319.7 423 365.3 425 411.2 414.3C457 403.7 503 380.3 548.8 381C594.7 381.7 640.3 406.3 686 410.5C731.7 414.7 777.3 398.3 823 395.8C868.7 393.3 914.3 404.7 937.2 410.3L960 416L960 541L937.2 541C914.3 541 868.7 541 823 541C777.3 541 731.7 541 686 541C640.3 541 594.7 541 548.8 541C503 541 457 541 411.2 541C365.3 541 319.7 541 274 541C228.3 541 182.7 541 137 541C91.3 541 45.7 541 22.8 541L0 541Z" fill="#F7F9FF" stroke-linecap="round" stroke-linejoin="miter"></path></svg>